<svg width="31" height="30" viewBox="0 0 31 30" fill="none" xmlns="http://www.w3.org/2000/svg">
<path d="M19.463 24.2486C19.5143 24.6007 19.3861 24.9763 19.0913 25.2227C18.5913 25.6805 17.7838 25.6805 17.2838 25.2227L12.1435 20.5161C11.8487 20.2462 11.7205 19.8823 11.7718 19.542V13.5326L5.63161 6.33769C5.19577 5.833 5.29832 5.09356 5.84952 4.6945C6.09308 4.53018 6.36227 4.43628 6.64429 4.43628H24.5905C24.8725 4.43628 25.1417 4.53018 25.3853 4.6945C25.9365 5.09356 26.039 5.833 25.6032 6.33769L19.463 13.5326V24.2486ZM9.25931 6.78371L14.3355 12.7227V19.2016L16.8993 21.549V12.711L21.9755 6.78371H9.25931Z" fill="white"/>
</svg>
