<svg width="167" height="41" viewBox="0 0 167 41" fill="none" xmlns="http://www.w3.org/2000/svg">
<path d="M7.59142 12.5001C7.91031 11.389 8.92652 10.6234 10.0825 10.6234H34.1814C35.3374 10.6234 36.3536 11.389 36.6724 12.5001L38.1588 17.6791C41.2169 28.3349 33.2178 38.9524 22.1319 38.9524C11.046 38.9524 3.04701 28.3349 6.1051 17.6791L7.59142 12.5001Z" fill="white"/>
<path d="M14.1644 15.9351V7.08227C14.1644 4.1487 16.5426 1.77058 19.4761 1.77058H24.7878C27.7214 1.77058 30.0995 4.1487 30.0995 7.08227V15.9351" stroke="white" stroke-width="3.54113"/>
<path d="M21.8739 16.5992C23.2729 16.5992 24.6146 17.155 25.6038 18.1442C26.593 19.1334 27.1487 20.4751 27.1487 21.874C27.1487 23.1806 26.6699 24.3816 25.8828 25.3067L26.1019 25.5258H26.743L30.8005 29.5834L29.5833 30.8006L25.5257 26.7431V26.102L25.3066 25.8829C24.3815 26.6701 23.1805 27.1489 21.8739 27.1489C20.475 27.1489 19.1333 26.5931 18.1441 25.6039C17.1549 24.6147 16.5991 23.273 16.5991 21.874C16.5991 20.4751 17.1549 19.1334 18.1441 18.1442C19.1333 17.155 20.475 16.5992 21.8739 16.5992ZM21.8739 18.2223C19.8452 18.2223 18.2221 19.8453 18.2221 21.874C18.2221 23.9028 19.8452 25.5258 21.8739 25.5258C23.9027 25.5258 25.5257 23.9028 25.5257 21.874C25.5257 19.8453 23.9027 18.2223 21.8739 18.2223Z" fill="#0573B1"/>
<path d="M46.4631 31V8.6909H50.7656V31H46.4631ZM59.4171 31C58.291 31 57.303 30.83 56.4531 30.4901C55.6245 30.1289 54.9765 29.5446 54.509 28.7372C54.0416 27.9086 53.8079 26.7825 53.8079 25.359V18.5388H51.0671V14.9374H53.8079L54.286 10.5712H58.1104V14.9374H62.3491V18.5388H58.1104V25.4227C58.1104 26.1451 58.2697 26.6444 58.5884 26.9206C58.9071 27.1968 59.4489 27.3349 60.2138 27.3349H62.3172V31H59.4171ZM70.4098 31.3824C68.795 31.3824 67.3609 31.0425 66.1073 30.3626C64.875 29.6615 63.9083 28.6947 63.2071 27.4624C62.5272 26.2089 62.1873 24.7641 62.1873 23.1281C62.1873 21.4496 62.5272 19.9729 63.2071 18.6981C63.9083 17.4021 64.875 16.3929 66.1073 15.6705C67.3396 14.9268 68.7738 14.555 70.4098 14.555C72.0033 14.555 73.3949 14.9056 74.5848 15.6067C75.7746 16.3079 76.6988 17.2533 77.3575 18.4432C78.0161 19.633 78.3454 20.9822 78.3454 22.4907C78.3454 22.7031 78.3454 22.9475 78.3454 23.2237C78.3454 23.4787 78.3242 23.7442 78.2817 24.0204H65.2468V21.4071H74.0111C73.9474 20.366 73.5755 19.548 72.8956 18.9531C72.237 18.3582 71.4084 18.0607 70.4098 18.0607C69.6874 18.0607 69.0181 18.2307 68.4019 18.5706C67.7858 18.8893 67.2971 19.3886 66.9359 20.0685C66.596 20.7484 66.426 21.6089 66.426 22.65V23.5743C66.426 24.4454 66.5853 25.2103 66.904 25.8689C67.244 26.5063 67.7114 27.0056 68.3063 27.3668C68.9012 27.7068 69.5918 27.8767 70.3779 27.8767C71.164 27.8767 71.8121 27.7068 72.322 27.3668C72.8531 27.0269 73.2462 26.5913 73.5012 26.0601H77.8993C77.6018 27.0587 77.1025 27.9617 76.4014 28.7691C75.7002 29.5765 74.8397 30.2139 73.8199 30.6813C72.8 31.1487 71.6633 31.3824 70.4098 31.3824ZM79.0008 31V14.9374H82.7933L83.1439 17.0727C83.6538 16.3079 84.3231 15.7023 85.1517 15.2562C86.0016 14.7887 86.9683 14.555 88.0519 14.555C88.8593 14.555 89.5817 14.6612 90.2191 14.8737C90.8565 15.0862 91.4195 15.3943 91.9082 15.7979C92.4181 16.2016 92.8324 16.7116 93.1511 17.3277C93.746 16.4566 94.5215 15.7767 95.4776 15.288C96.4337 14.7993 97.4748 14.555 98.6009 14.555C100.003 14.555 101.172 14.8418 102.107 15.4155C103.041 15.9679 103.743 16.7753 104.21 17.8376C104.699 18.9 104.943 20.2066 104.943 21.7577V31H100.672V22.1401C100.672 20.8653 100.418 19.8879 99.9076 19.2081C99.4189 18.5282 98.654 18.1882 97.6129 18.1882C96.933 18.1882 96.3275 18.3582 95.7963 18.6981C95.2652 19.0381 94.8509 19.5268 94.5534 20.1642C94.2772 20.8016 94.1391 21.5664 94.1391 22.4588V31H89.8366V22.1401C89.8366 20.8653 89.5817 19.8879 89.0717 19.2081C88.5618 18.5282 87.7757 18.1882 86.7133 18.1882C86.0547 18.1882 85.4598 18.3582 84.9286 18.6981C84.4187 19.0381 84.015 19.5268 83.7175 20.1642C83.4413 20.8016 83.3032 21.5664 83.3032 22.4588V31H79.0008Z" fill="white"/>
<path d="M110.203 31V8.6909H124.736V12.1647H114.506V18.1245H122.696V21.5027H114.506V31H110.203ZM125.044 31V14.9375H129.347V31H125.044ZM127.211 12.7384C126.446 12.7384 125.809 12.5153 125.299 12.0691C124.81 11.6017 124.566 11.0174 124.566 10.3163C124.566 9.61514 124.81 9.04147 125.299 8.59529C125.809 8.12786 126.446 7.89415 127.211 7.89415C127.997 7.89415 128.635 8.12786 129.123 8.59529C129.633 9.04147 129.888 9.61514 129.888 10.3163C129.888 11.0174 129.633 11.6017 129.123 12.0691C128.635 12.5153 127.997 12.7384 127.211 12.7384ZM130.826 31V14.9375H134.618L134.937 17.5508C135.426 16.6584 136.116 15.9361 137.009 15.3836C137.922 14.8312 139.006 14.555 140.259 14.555C141.598 14.555 142.724 14.8312 143.638 15.3836C144.551 15.9361 145.242 16.7434 145.709 17.8058C146.198 18.8681 146.442 20.1748 146.442 21.7258V31H142.172V22.1401C142.172 20.8653 141.895 19.8879 141.343 19.2081C140.812 18.5282 139.983 18.1882 138.857 18.1882C138.135 18.1882 137.487 18.3582 136.913 18.6981C136.361 19.0381 135.925 19.5268 135.606 20.1642C135.288 20.7803 135.128 21.5346 135.128 22.4269V31H130.826ZM154.766 31.3825C153.3 31.3825 151.983 31.0213 150.814 30.2989C149.667 29.5765 148.764 28.5779 148.105 27.3031C147.447 26.0283 147.117 24.5941 147.117 23.0006C147.117 21.3646 147.447 19.9198 148.105 18.6663C148.785 17.3915 149.71 16.3929 150.878 15.6705C152.068 14.9268 153.396 14.555 154.862 14.555C156.009 14.555 157.018 14.7675 157.89 15.1924C158.761 15.6173 159.462 16.2229 159.993 17.009V8.0535H164.295V31H160.471L159.993 28.801C159.674 29.2472 159.271 29.6721 158.782 30.0758C158.314 30.4795 157.751 30.7982 157.093 31.0319C156.434 31.2656 155.659 31.3825 154.766 31.3825ZM155.786 27.6218C156.636 27.6218 157.38 27.4306 158.017 27.0481C158.676 26.6444 159.186 26.092 159.547 25.3909C159.908 24.6897 160.089 23.8823 160.089 22.9687C160.089 22.0551 159.908 21.2477 159.547 20.5466C159.186 19.8455 158.676 19.3037 158.017 18.9212C157.38 18.5175 156.636 18.3157 155.786 18.3157C154.979 18.3157 154.246 18.5175 153.587 18.9212C152.928 19.3037 152.408 19.8455 152.025 20.5466C151.664 21.2477 151.484 22.0445 151.484 22.9369C151.484 23.8717 151.664 24.6897 152.025 25.3909C152.408 26.092 152.918 26.6444 153.555 27.0481C154.214 27.4306 154.957 27.6218 155.786 27.6218Z" fill="#C7F9CC"/>
</svg>
