<svg width="56" height="50" viewBox="0 0 56 50" fill="none" xmlns="http://www.w3.org/2000/svg">
<path d="M9.60419 16.054C10.0076 14.6483 11.2933 13.6797 12.7557 13.6797H43.244C44.7065 13.6797 45.9921 14.6483 46.3956 16.054L48.276 22.6062C52.1448 36.0871 42.025 49.5197 27.9999 49.5197C13.9748 49.5197 3.85491 36.0871 7.7238 22.6062L9.60419 16.054Z" fill="#005D52"/>
<path d="M17.92 20.3998V9.1998C17.92 5.48845 20.9286 2.4798 24.64 2.4798H31.36C35.0713 2.4798 38.08 5.48844 38.08 9.1998V20.3998" stroke="#005D52" stroke-width="4.48"/>
<path d="M27.6735 21.2399C29.4434 21.2399 31.1408 21.9429 32.3923 23.1944C33.6438 24.4459 34.3468 26.1433 34.3468 27.9132C34.3468 29.5661 33.7411 31.0856 32.7452 32.256L33.0224 32.5332H33.8335L38.9669 37.6665L37.4268 39.2065L32.2935 34.0732V33.2621L32.0163 32.9849C30.8459 33.9808 29.3264 34.5865 27.6735 34.5865C25.9036 34.5865 24.2062 33.8835 22.9548 32.632C21.7033 31.3805 21.0002 29.6831 21.0002 27.9132C21.0002 26.1433 21.7033 24.4459 22.9548 23.1944C24.2062 21.9429 25.9036 21.2399 27.6735 21.2399ZM27.6735 23.2932C25.1068 23.2932 23.0535 25.3465 23.0535 27.9132C23.0535 30.4799 25.1068 32.5332 27.6735 32.5332C30.2402 32.5332 32.2935 30.4799 32.2935 27.9132C32.2935 25.3465 30.2402 23.2932 27.6735 23.2932Z" fill="white"/>
</svg>
