<svg width="31" height="31" viewBox="0 0 31 31" fill="none" xmlns="http://www.w3.org/2000/svg">
<g opacity="0.3">
<path d="M12.2708 3.875C14.4975 3.875 16.6331 4.75956 18.2076 6.33408C19.7821 7.90861 20.6667 10.0441 20.6667 12.2708C20.6667 14.3504 19.9046 16.2621 18.6517 17.7346L19.0004 18.0833H20.0208L26.4792 24.5417L24.5417 26.4792L18.0833 20.0208V19.0004L17.7346 18.6517C16.2621 19.9046 14.3504 20.6667 12.2708 20.6667C10.0441 20.6667 7.90861 19.7821 6.33408 18.2076C4.75956 16.6331 3.875 14.4975 3.875 12.2708C3.875 10.0441 4.75956 7.90861 6.33408 6.33408C7.90861 4.75956 10.0441 3.875 12.2708 3.875ZM12.2708 6.45833C9.04167 6.45833 6.45833 9.04167 6.45833 12.2708C6.45833 15.5 9.04167 18.0833 12.2708 18.0833C15.5 18.0833 18.0833 15.5 18.0833 12.2708C18.0833 9.04167 15.5 6.45833 12.2708 6.45833Z" fill="black"/>
</g>
</svg>
